<svg width="31" height="31" viewBox="0 0 31 31" fill="none" xmlns="http://www.w3.org/2000/svg">
<g filter="url(#filter0_d_567_579)">
<circle cx="14" cy="14" r="14" fill="#F5F5F7"/>
</g>
<path d="M18.7502 6.20834H9.12516C7.10012 6.20834 5.4585 7.84997 5.4585 9.87501V18.125C5.4585 20.1501 7.10012 21.7917 9.12516 21.7917H18.7502C20.7752 21.7917 22.4168 20.1501 22.4168 18.125V9.87501C22.4168 7.84997 20.7752 6.20834 18.7502 6.20834Z" stroke="url(#paint0_linear_567_579)" stroke-width="2"/>
<path d="M5.50158 9.95752L12.1062 13.7434C12.6596 14.0645 13.2881 14.2337 13.928 14.2337C14.5679 14.2337 15.1965 14.0645 15.7499 13.7434L22.3728 9.95752" stroke="url(#paint1_linear_567_579)" stroke-width="2" stroke-linecap="round" stroke-linejoin="round"/>
<defs>
<filter id="filter0_d_567_579" x="0" y="0" width="30.8" height="30.8" filterUnits="userSpaceOnUse" color-interpolation-filters="sRGB">
<feFlood flood-opacity="0" result="BackgroundImageFix"/>
<feColorMatrix in="SourceAlpha" type="matrix" values="0 0 0 0 0 0 0 0 0 0 0 0 0 0 0 0 0 0 127 0" result="hardAlpha"/>
<feOffset dx="1.4" dy="1.4"/>
<feGaussianBlur stdDeviation="0.7"/>
<feComposite in2="hardAlpha" operator="out"/>
<feColorMatrix type="matrix" values="0 0 0 0 0.288462 0 0 0 0 0.288462 0 0 0 0 0.288462 0 0 0 0.25 0"/>
<feBlend mode="normal" in2="BackgroundImageFix" result="effect1_dropShadow_567_579"/>
<feBlend mode="normal" in="SourceGraphic" in2="effect1_dropShadow_567_579" result="shape"/>
</filter>
<linearGradient id="paint0_linear_567_579" x1="13.9377" y1="6.20834" x2="13.9377" y2="21.7917" gradientUnits="userSpaceOnUse">
<stop stop-color="#42A0FF"/>
<stop offset="0.5" stop-color="#FF4EA4"/>
<stop offset="1" stop-color="#FF782C"/>
</linearGradient>
<linearGradient id="paint1_linear_567_579" x1="13.9372" y1="9.95752" x2="13.9372" y2="14.2337" gradientUnits="userSpaceOnUse">
<stop stop-color="#42A0FF"/>
<stop offset="0.5" stop-color="#FF4EA4"/>
<stop offset="1" stop-color="#FF782C"/>
</linearGradient>
</defs>
</svg>
