<svg width="44" height="44" viewBox="0 0 44 44" fill="none" xmlns="http://www.w3.org/2000/svg">
<g filter="url(#filter0_d_564_421)">
<circle cx="20" cy="20" r="20" fill="#F5F5F7"/>
</g>
<path d="M19.5393 18.4009C19.9668 17.6336 20.1805 17.25 20.5 17.25C20.8195 17.25 21.0333 17.6325 21.4608 18.4009L21.571 18.5989C21.6925 18.8171 21.7533 18.9251 21.8478 18.9971C21.9434 19.0691 22.0615 19.0961 22.2978 19.149L22.5115 19.1985C23.3418 19.3864 23.7569 19.4797 23.8559 19.797C23.9549 20.1142 23.6714 20.4461 23.1055 21.1076L22.9593 21.2786C22.7984 21.4665 22.7174 21.5599 22.6814 21.6769C22.6454 21.7939 22.6578 21.9188 22.6814 22.1696L22.7039 22.398C22.7894 23.2811 22.8321 23.7233 22.5745 23.919C22.3158 24.1148 21.9265 23.9359 21.1491 23.5781L20.9489 23.4859C20.7273 23.3846 20.617 23.334 20.5 23.334C20.383 23.334 20.2728 23.3846 20.0511 23.4859L19.8509 23.5781C19.0735 23.937 18.6843 24.1148 18.4255 23.919C18.1668 23.7233 18.2106 23.2811 18.2961 22.398L18.3186 22.1696C18.3423 21.9188 18.3546 21.7939 18.3186 21.6769C18.2826 21.5599 18.2016 21.4665 18.0408 21.2786L17.8945 21.1076C17.3286 20.4461 17.0451 20.1154 17.1441 19.797C17.2431 19.4797 17.6583 19.3864 18.4885 19.1985L18.7023 19.149C18.9385 19.0961 19.0566 19.0703 19.1523 18.9971C19.2468 18.9251 19.3075 18.8171 19.429 18.5989L19.5393 18.4009Z" stroke="url(#paint0_linear_564_421)" stroke-width="2.5"/>
<path d="M31.75 19.2728C31.75 16.3118 31.75 14.8301 30.8837 13.8682C30.8043 13.7795 30.7202 13.695 30.6318 13.6151C29.6699 12.75 28.1882 12.75 25.2272 12.75H24.8065C23.5094 12.75 22.8603 12.75 22.255 12.5779C21.9229 12.4829 21.6027 12.3501 21.301 12.1819C20.752 11.877 20.293 11.4169 19.375 10.5L18.7562 9.88125C18.448 9.573 18.295 9.42 18.133 9.285C17.4362 8.70747 16.5816 8.35344 15.6805 8.26912C15.4713 8.25 15.253 8.25 14.8187 8.25C13.8254 8.25 13.3292 8.25 12.9152 8.32875C12.0263 8.49663 11.2086 8.92853 10.5688 9.56811C9.92906 10.2077 9.49691 11.0252 9.32875 11.9141C9.25 12.3292 9.25 12.8265 9.25 13.8187M31.7399 24C31.6994 26.79 31.4924 28.3706 30.4315 29.4315C29.1141 30.75 26.9924 30.75 22.75 30.75H18.25C14.0076 30.75 11.8859 30.75 10.5685 29.4315C9.25112 28.113 9.25 25.9924 9.25 21.75V18.375" stroke="url(#paint1_linear_564_421)" stroke-width="2.5" stroke-linecap="round"/>
<defs>
<filter id="filter0_d_564_421" x="0" y="0" width="44" height="44" filterUnits="userSpaceOnUse" color-interpolation-filters="sRGB">
<feFlood flood-opacity="0" result="BackgroundImageFix"/>
<feColorMatrix in="SourceAlpha" type="matrix" values="0 0 0 0 0 0 0 0 0 0 0 0 0 0 0 0 0 0 127 0" result="hardAlpha"/>
<feOffset dx="2" dy="2"/>
<feGaussianBlur stdDeviation="1"/>
<feComposite in2="hardAlpha" operator="out"/>
<feColorMatrix type="matrix" values="0 0 0 0 0.288462 0 0 0 0 0.288462 0 0 0 0 0.288462 0 0 0 0.25 0"/>
<feBlend mode="normal" in2="BackgroundImageFix" result="effect1_dropShadow_564_421"/>
<feBlend mode="normal" in="SourceGraphic" in2="effect1_dropShadow_564_421" result="shape"/>
</filter>
<linearGradient id="paint0_linear_564_421" x1="20.5" y1="17.25" x2="20.5" y2="23.9998" gradientUnits="userSpaceOnUse">
<stop stop-color="#42A0FF"/>
<stop offset="0.495192" stop-color="#FF4EA4"/>
<stop offset="1" stop-color="#FF782C"/>
</linearGradient>
<linearGradient id="paint1_linear_564_421" x1="20.5" y1="8.25" x2="20.5" y2="30.75" gradientUnits="userSpaceOnUse">
<stop stop-color="#42A0FF"/>
<stop offset="0.495192" stop-color="#FF4EA4"/>
<stop offset="1" stop-color="#FF782C"/>
</linearGradient>
</defs>
</svg>
