<svg width="44" height="44" viewBox="0 0 44 44" fill="none" xmlns="http://www.w3.org/2000/svg">
<g filter="url(#filter0_d_564_418)">
<circle cx="20" cy="20" r="20" fill="#F5F5F7"/>
</g>
<path d="M30.0623 10.7377L28.1353 12.6647C29.1503 13.6808 29.9551 14.8869 30.5039 16.2142C31.0526 17.5414 31.3344 18.9638 31.3333 20.4C31.3333 23.2997 30.1814 26.0806 28.131 28.131C26.0806 30.1814 23.2997 31.3333 20.4 31.3333C17.5003 31.3333 14.7193 30.1814 12.6689 28.131C10.6185 26.0806 9.46663 23.2997 9.46663 20.4C9.46663 14.824 13.635 10.232 19.0333 9.56234V12.323C15.152 12.979 12.2 16.341 12.2 20.4C12.2 22.5748 13.0639 24.6605 14.6017 26.1983C16.1395 27.7361 18.2252 28.6 20.4 28.6C22.5747 28.6 24.6604 27.7361 26.1982 26.1983C27.736 24.6605 28.6 22.5748 28.6 20.4C28.6 18.1313 27.6843 16.0813 26.1946 14.6053L24.2676 16.5323C25.2516 17.53 25.8666 18.8967 25.8666 20.4C25.8666 21.8499 25.2907 23.2403 24.2655 24.2655C23.2403 25.2907 21.8498 25.8667 20.4 25.8667C18.9501 25.8667 17.5596 25.2907 16.5345 24.2655C15.5093 23.2403 14.9333 21.8499 14.9333 20.4C14.9333 17.858 16.6826 15.7397 19.0333 15.1247V18.0493C18.2133 18.5277 17.6666 19.3887 17.6666 20.4C17.6666 21.1249 17.9546 21.8202 18.4672 22.3328C18.9798 22.8454 19.675 23.1333 20.4 23.1333C21.1249 23.1333 21.8201 22.8454 22.3327 22.3328C22.8453 21.8202 23.1333 21.1249 23.1333 20.4C23.1333 19.3887 22.5866 18.514 21.7666 18.0493V6.73334H20.4C18.6052 6.73334 16.8281 7.08684 15.17 7.77365C13.5118 8.46046 12.0052 9.46714 10.7362 10.7362C8.17318 13.2992 6.7333 16.7754 6.7333 20.4C6.7333 24.0246 8.17318 27.5008 10.7362 30.0638C12.0052 31.3329 13.5118 32.3395 15.17 33.0264C16.8281 33.7132 18.6052 34.0667 20.4 34.0667C24.0246 34.0667 27.5008 32.6268 30.0638 30.0638C32.6268 27.5008 34.0666 24.0246 34.0666 20.4C34.0666 16.628 32.536 13.2113 30.0623 10.7377Z" fill="url(#paint0_linear_564_418)"/>
<defs>
<filter id="filter0_d_564_418" x="0" y="0" width="44" height="44" filterUnits="userSpaceOnUse" color-interpolation-filters="sRGB">
<feFlood flood-opacity="0" result="BackgroundImageFix"/>
<feColorMatrix in="SourceAlpha" type="matrix" values="0 0 0 0 0 0 0 0 0 0 0 0 0 0 0 0 0 0 127 0" result="hardAlpha"/>
<feOffset dx="2" dy="2"/>
<feGaussianBlur stdDeviation="1"/>
<feComposite in2="hardAlpha" operator="out"/>
<feColorMatrix type="matrix" values="0 0 0 0 0.288462 0 0 0 0 0.288462 0 0 0 0 0.288462 0 0 0 0.25 0"/>
<feBlend mode="normal" in2="BackgroundImageFix" result="effect1_dropShadow_564_418"/>
<feBlend mode="normal" in="SourceGraphic" in2="effect1_dropShadow_564_418" result="shape"/>
</filter>
<linearGradient id="paint0_linear_564_418" x1="20.4" y1="6.73334" x2="20.4" y2="34.0667" gradientUnits="userSpaceOnUse">
<stop stop-color="#42A0FF"/>
<stop offset="0.620192" stop-color="#FF4EA4"/>
<stop offset="1" stop-color="#FF782C"/>
</linearGradient>
</defs>
</svg>
