<svg width="44" height="44" viewBox="0 0 44 44" fill="none" xmlns="http://www.w3.org/2000/svg">
<g filter="url(#filter0_d_564_409)">
<circle cx="20" cy="20" r="20" fill="#F5F5F7"/>
</g>
<path d="M27.6097 27.8472L31.4597 31.7222L29.7222 33.4597L25.8222 29.6222C24.9597 30.1597 23.9347 30.4722 22.8472 30.4722C19.7222 30.4722 17.2222 27.9722 17.2222 24.8472C17.2222 21.7222 19.7222 19.2222 22.8472 19.2222C25.9722 19.2222 28.4722 21.7222 28.4722 24.8472C28.4722 25.9472 28.1597 26.9847 27.6097 27.8472ZM22.8472 27.9722C23.676 27.9722 24.4709 27.643 25.0569 27.0569C25.643 26.4709 25.9722 25.676 25.9722 24.8472C25.9722 24.0184 25.643 23.2236 25.0569 22.6375C24.4709 22.0515 23.676 21.7222 22.8472 21.7222C22.0184 21.7222 21.2236 22.0515 20.6375 22.6375C20.0515 23.2236 19.7222 24.0184 19.7222 24.8472C19.7222 25.676 20.0515 26.4709 20.6375 27.0569C21.2236 27.643 22.0184 27.9722 22.8472 27.9722ZM29.7222 9.22223V11.7222H7.22222V9.22223H29.7222ZM7.22222 24.2222V21.7222H14.7222V24.2222H7.22222ZM7.22222 17.9722V15.4722H29.7222V17.9722H27.1847C25.9222 17.1847 24.4347 16.7222 22.8472 16.7222C21.2597 16.7222 19.7722 17.1847 18.5097 17.9722H7.22222Z" fill="url(#paint0_linear_564_409)"/>
<defs>
<filter id="filter0_d_564_409" x="0" y="0" width="44" height="44" filterUnits="userSpaceOnUse" color-interpolation-filters="sRGB">
<feFlood flood-opacity="0" result="BackgroundImageFix"/>
<feColorMatrix in="SourceAlpha" type="matrix" values="0 0 0 0 0 0 0 0 0 0 0 0 0 0 0 0 0 0 127 0" result="hardAlpha"/>
<feOffset dx="2" dy="2"/>
<feGaussianBlur stdDeviation="1"/>
<feComposite in2="hardAlpha" operator="out"/>
<feColorMatrix type="matrix" values="0 0 0 0 0.288462 0 0 0 0 0.288462 0 0 0 0 0.288462 0 0 0 0.25 0"/>
<feBlend mode="normal" in2="BackgroundImageFix" result="effect1_dropShadow_564_409"/>
<feBlend mode="normal" in="SourceGraphic" in2="effect1_dropShadow_564_409" result="shape"/>
</filter>
<linearGradient id="paint0_linear_564_409" x1="19.341" y1="9.22223" x2="19.341" y2="33.4597" gradientUnits="userSpaceOnUse">
<stop stop-color="#42A0FF"/>
<stop offset="0.5" stop-color="#FF4EA4"/>
<stop offset="1" stop-color="#FF782C"/>
</linearGradient>
</defs>
</svg>
